<?xml version="1.0" encoding="utf-8"?>
<!-- Designed by Vexels.com - 2019 All Rights Reserved - https://vexels.com/terms-and-conditions/  -->
<svg version="1.1" id="Capa_1" xmlns="http://www.w3.org/2000/svg" xmlns:xlink="http://www.w3.org/1999/xlink" x="0px" y="0px"
	 viewBox="0 0 1200 1200" enable-background="new 0 0 1200 1200" xml:space="preserve">
<g>
	<path fill="#CDA28D" d="M307.839,359.807c1.467-2.597,4.257-3.298,6.687-4.17c13.648-4.9,26.006-12.201,38.117-20
		c1.764-1.136,3.498-2.342,5.352-3.311c5.488-2.87,11.197-3.981,17.226-1.768c0.362,0.438,0.665,1.178,1.095,1.262
		c1.558,0.304,6.111,2.632,7.73,3.819c1.68,1.232,3.511,2.293,5.375,3.233c8.563,4.318,17.169,8.549,25.742,12.845
		c9.21,4.616,17.346,10.629,24.153,18.426c4.157,4.762,9.151,8.6,14.441,12.003c4.785,3.078,9.731,5.907,14.599,8.839
		c2.612,0.133,1.568-2.124,2.156-3.313c0.405-1.235,1.359-1.772,2.51-2.244c1.339-0.55,2.568-1.366,3.845-2.066
		c6.497,0.845,12.995,1.689,19.492,2.533c2.438-0.321,4.409,0.463,5.863,2.478c-0.988,0.71-1.986,1.485-1.238,2.868
		c2.454,4.534,5.785,8.298,9.591,11.809c6.474,5.971,11.78,12.828,13.789,21.716c0.463,2.049,0.962,4.11,1.691,6.074
		c0.508,1.367,1.132,3.226,2.232,3.742c4.024,1.888,4.447,5.195,4.51,8.969c0.055,3.3,0.389,6.601,0.728,9.889
		c0.118,1.148,0.255,2.775,1.003,3.299c4.37,3.06,4.129,7.762,4.56,12.155c0.41,4.178,0.654,8.403,0.535,12.595
		c-0.248,8.696-1.016,17.38-1.141,26.075c-0.124,8.699-0.339,17.333-2.638,25.805c-0.461,1.7-0.243,3.582-0.348,5.38
		c-0.608,10.443,0.382,21.077-3.771,31.098c-0.337,0.814-0.421,1.763-0.479,2.658c-0.47,7.221-1.471,14.352-3.532,21.306
		c-0.477,1.609,0.159,2.737,1.037,4.082c2.131,3.262,2.249,3.878-0.44,5.815c-4.994,3.597-7.356,8.544-8.717,14.264
		c-1.978,8.312-6.664,15.384-10.536,22.837c-4.059,7.813-10.107,11.617-19.044,10.313c-4.45-0.649-8.637,0.624-11.704,3.614
		c-6.11,5.956-13.651,9.497-20.832,13.731c-4.642,2.737-9.091,5.918-13.222,9.382c-6.693,5.613-15.16,8.688-21.227,15.147
		c-1.337,1.423-3.094,1.784-4.98,1.314c-2.341-0.583-4.627-1.282-6.546-2.869c-1.253-1.036-1.538-2.682-0.331-3.848
		c6.334-6.119,11.397-13.238,15.343-21.01c1.799-3.542,3.742-6.808,6.347-9.728c3.204-3.591,6.432-7.16,9.685-10.707
		c2.447-2.668,5.095-5.111,3.922-9.424c-0.346-1.272,0.234-3.071,0.944-4.312c6.662-11.641,9.657-25.289,19.271-35.318
		c0.399-0.416,0.634-1.02,0.853-1.573c1.546-3.908,3.345-7.742,4.544-11.755c3.613-12.089,6.827-24.271,11.161-36.168
		c3.597-9.873,7.248-19.717,11.068-29.505c4.178-10.706,7.36-21.614,6.608-33.327c-0.481-7.495-0.844-15.002-1.064-22.509
		c-0.212-7.24-0.905-14.33-3.509-21.2c-1.046-2.759-1.21-5.859-1.723-8.812c-1.199-6.899-1.21-6.734-8.545-7.749
		c-3.545-0.49-4.964,0.714-5.204,4.307c-0.321,4.802-0.472,9.594-1.643,14.303c-2.545,10.24-5.666,20.236-10.997,29.454
		c-1.787,3.09-3.807,6.4-4.312,9.818c-3.056,20.681-10.8,40.024-16.682,59.89c-1.871,6.319-4.415,12.461-6.964,18.553
		c-5.798,13.856-12.162,27.459-19.097,40.785c-6.093,11.709-12.584,23.193-20.067,34.089c-0.815,0.34-1.911,0.452-2.401,1.056
		c-5.418,6.673-10.851,13.361-12.754,22.071c-0.694,7.037-4.029,13.133-6.865,19.416c-1.403,3.108-3.066,5.858-6.603,6.895
		c-1.882,0.552-2.73,2.096-3.696,3.68c-2.969,4.864-6.14,9.604-9.198,14.414c-2.164,3.404-5.272,5.719-8.691,7.685
		c-1.856,1.068-3.924,2.103-5.991,1.315c-4.619-1.761-8.122,0.166-11.546,2.859c-2.359,1.855-4.849,3.554-7.12,5.508
		c-2.526,2.175-5.223,2.661-8.377,1.745c-4.061-1.181-7.94-2.684-11.587-4.888c-4.875-2.946-9.728-6.017-14.894-8.368
		c-5.135-2.337-10.789-4.988-16.392-2.424c-5.058,2.315-9.495,1.346-13.8-0.809c-6.413-3.209-13.026-6.205-18.063-11.659
		c-1.613-1.747-3.567-3.294-5.621-4.494c-6.657-3.89-11.327-8.783-10.661-17.257c0.156-1.977-1.414-4.091-1.253-6.066
		c0.248-3.037-0.877-5.163-2.758-7.265c-2.046-2.287-3.488-4.875-3.198-8.145c1.095-12.345-1.142-24.562-1.448-36.854
		c-0.112-4.497-0.489-9.069,0.122-13.487c1.857-13.421,1.712-26.938,2.489-40.408c0.107-1.85,0.137-3.588-1.149-5.096
		c-6.691-7.844-3.204-16.441-1.826-24.88c3.651-4.419,3.752-10.03,5.106-15.219c1.32-0.077,2.639-0.154,3.959-0.231
		c1.388,0.536,2.748,1.437,4.169,1.546c8.16,0.627,15.882,3.03,23.618,5.449c4.27,1.335,8.544,2.693,12.887,3.749
		c6.114,1.485,12.296,2.691,18.446,4.031c7.016,1.529,13.911,3.432,21.177,3.948c9.544,0.678,19.114,1.756,28.508,3.532
		c6.438,1.217,7.244,0.088,8.337-5.722c0.44-2.341,0.693-4.753,0.691-7.132c-0.002-3.099-0.981-4.202-4.076-5.003
		c-8.131-2.104-16.233-4.353-24.433-6.149c-7.734-1.694-14.8-4.743-21.469-8.916c-2.273-1.423-4.6-3.014-7.128-3.727
		c-7.213-2.034-14.455-4.441-21.845-5.261c-12.038-1.335-23.351-5.252-34.946-8.18c0.334-3.31-0.17-6.401-1.185-9.652
		c-1.167-3.738,3.925-5.926,3.577-9.822c-0.026-0.291,0.121-0.594,0.119-0.891c-0.09-11.329,3.474-21.947,6.881-32.484
		c3.325-10.283,7.896-20.055,15.542-28.12c4.116-4.341,7.921-8.972,11.383-13.928c4.817-6.896,11.015-12.607,17.639-17.808
		c0.118-2.175,1.111-2.818,3.078-1.76c1.188-1.255,2.377-2.509,3.565-3.764c5.014-1.322,9.292-3.799,12.499-7.957
		c0,0,0.449-0.153,0.445-0.152C305.53,360.345,306.684,360.076,307.839,359.807z M382.122,516.239
		c-1.265,1.589-2.518,2.824-3.369,4.292c-2.855,4.921-5.464,9.986-8.357,14.884c-5.479,9.276-10.958,18.558-16.688,27.68
		c-4.783,7.614-8.545,15.885-14.339,22.839c-1.903,2.283-2.836,5.463-5.684,6.847c-3.418,1.66-5.436-1.743-8.161-2.637
		c-4.302-1.411-5.655-0.979-8.746,3.42c-1.919,2.731-2.986,3.047-5.928,1.698c-0.542-0.248-1.055-0.579-1.539-0.93
		c-2.619-1.899-5.386-2.622-8.435-1.081c-1.889,0.955-3.456,0.416-4.893-0.945c-1.96-1.858-4.034-3.607-5.886-5.567
		c-4.787-5.066-9.952-9.6-16.618-12.014c-2.115-0.766-3.407-2.233-4.743-3.923c-6.129-7.755-14.687-11.04-24.067-12.63
		c-2.351-0.399-4.131,0.809-5.003,2.97c-1.238,3.07-2.092,6.228-1.995,9.626c0.239,8.371,0.496,16.752-0.538,25.093
		c-0.818,6.599-0.525,13.192,0.3,19.736c0.677,5.363,1.792,10.649,0.734,16.097c-0.215,1.105,0.043,2.428,0.457,3.507
		c1.934,5.039,3.792,10.223,7.425,14.286c4.202,4.699,6.287,11.021,11.654,14.819c0.859,0.608,1.109,2.068,1.661,3.123
		c3.906,7.453,9.972,12.535,17.355,16.387c8.908,4.647,18.481,7.29,28.226,8.891c9.978,1.64,19.451-0.119,27.921-6.596
		c5.058-3.868,9.102-8.702,13.964-12.702c5.392-4.435,10.325-9.223,11.729-16.517c0.108-0.56,0.551-1.057,0.849-1.577
		c5.225-9.096,10.275-18.299,15.725-27.257c6.238-10.252,12.419-20.493,16.422-31.892c1.205-3.432,1.543-3.861-1.597-5.918
		c-2.983-1.955-4.154-4.114-3.208-7.505c0.239-0.858,0.38-1.787,0.32-2.667c-0.033-0.495-0.475-1.071-0.896-1.409
		c-0.807-0.647-1.874-0.489-2.451,0.165c-1.572,1.781-2.89,3.784-4.436,5.589c-3.995,4.662-7.188,5.34-12.726,2.725
		c-1.623-0.766-3.16-1.718-4.724-2.606c-4.203-2.386-4.974-4.403-2.621-8.831c2.946-5.543,5.261-11.37,8.531-16.798
		c3.369-5.592,5.973-11.695,7.509-18.219c1.576-6.692,2.976-13.502,6.583-19.563C382.544,519.947,383.022,518.431,382.122,516.239z"
		/>
	<path fill="#473A1C" d="M401.114,635.692c7.483-10.895,13.973-22.379,20.067-34.089c6.935-13.326,13.299-26.929,19.097-40.785
		c2.549-6.092,5.093-12.234,6.964-18.553c5.882-19.866,13.626-39.209,16.682-59.89c0.505-3.418,2.525-6.728,4.312-9.818
		c5.331-9.218,8.452-19.213,10.997-29.454c1.17-4.709,1.322-9.501,1.643-14.303c0.24-3.593,1.659-4.797,5.204-4.307
		c7.335,1.015,7.345,0.85,8.545,7.749c0.513,2.954,0.677,6.053,1.723,8.812c2.604,6.871,3.297,13.96,3.509,21.2
		c0.22,7.507,0.583,15.013,1.064,22.509c0.752,11.713-2.43,22.621-6.608,33.327c-3.82,9.788-7.471,19.632-11.068,29.505
		c-4.335,11.897-7.549,24.079-11.161,36.168c-1.199,4.013-2.999,7.847-4.544,11.755c-0.219,0.553-0.454,1.157-0.853,1.573
		c-9.614,10.029-12.608,23.677-19.271,35.318c-0.71,1.24-1.29,3.04-0.944,4.312c1.173,4.313-1.475,6.755-3.922,9.424
		c-3.253,3.547-6.481,7.116-9.685,10.707c-2.606,2.92-4.549,6.187-6.347,9.728c-3.946,7.772-9.009,14.891-15.343,21.01
		c-1.208,1.167-0.922,2.812,0.331,3.848c1.919,1.588,4.205,2.287,6.546,2.869c1.886,0.469,3.643,0.109,4.98-1.314
		c6.067-6.46,14.533-9.534,21.227-15.147c4.131-3.464,8.579-6.645,13.222-9.382c7.18-4.234,14.722-7.775,20.832-13.731
		c3.067-2.989,7.254-4.263,11.704-3.614c8.937,1.303,14.985-2.501,19.044-10.313c3.873-7.453,8.559-14.525,10.536-22.837
		c1.361-5.72,3.723-10.667,8.717-14.264c2.689-1.937,2.572-2.553,0.44-5.815c-0.878-1.344-1.514-2.472-1.037-4.082
		c2.062-6.953,3.062-14.085,3.532-21.306c0.058-0.896,0.142-1.844,0.479-2.658c4.153-10.021,3.163-20.655,3.771-31.098
		c0.105-1.798-0.113-3.68,0.348-5.38c2.299-8.472,2.513-17.106,2.638-25.805c0.124-8.695,0.892-17.379,1.141-26.075
		c0.12-4.192-0.125-8.418-0.535-12.595c-0.431-4.393-0.19-9.095-4.56-12.155c-0.748-0.524-0.885-2.15-1.003-3.299
		c-0.339-3.287-0.673-6.588-0.728-9.889c-0.063-3.774-0.486-7.081-4.51-8.969c-1.1-0.516-1.724-2.375-2.232-3.742
		c-0.729-1.964-1.228-4.024-1.691-6.074c-2.009-8.888-7.315-15.745-13.789-21.716c-3.807-3.511-7.137-7.275-9.591-11.809
		c-0.748-1.382,0.25-2.158,1.238-2.868c10.246,5.901,19.3,13.129,26.976,22.27c10.277,12.239,18.113,25.463,19.967,41.651
		c0.198,1.725,1.107,3.221,2.835,2.261c13.214-7.345,28.253-10.361,41.494-17.615c2.374-1.3,4.861-2.391,7.256-3.654
		c4.461-2.353,9.194-2.88,14.023-1.777c4.39,1.003,8.786,2.13,13.017,3.653c13.046,4.697,25.432,10.843,37.517,17.612
		c7.378,4.133,14.112,9.178,20.632,14.524c2.803,2.299,5.761,4.2,9.169,5.608c3.869,1.597,7.67,3.568,11.12,5.932
		c10.405,7.131,20.66,14.484,30.894,21.86c2.683,1.934,5.295,3.896,8.23,5.488c3.153,1.71,6.119,3.824,8.967,6.02
		c2.643,2.038,5.126,4.299,3.762,8.335c-0.616,1.821,0.558,3.49,1.189,5.148c3.104,8.155,6.265,16.287,9.367,24.443
		c2.231,5.866,4.401,11.756,6.697,17.898c4.136-1.034,7.444-3.126,10.73-5.056c13.948-8.192,29.473-11.991,44.766-16.478
		c4.419-1.297,8.592-0.364,12.081,2.03c10.16,6.97,21.426,12.243,30.912,20.223c-0.26,0.962-0.517,1.925-0.775,2.889
		c-8.396-4.59-16.674-9.353-24.862-14.329c-8.011-4.868-14.611-6.455-21.623-0.356c-3.318,2.886-7.262,4.126-11.339,5.225
		c-3.772,1.017-7.567,1.967-11.29,3.141c-2.932,0.924-5.754,1.563-8.757,0.275c-3.108-1.334-5.851-0.156-8.489,1.513
		c-2.042,1.291-4.088,2.553-5.323,4.74c-0.607,1.075-1.361,2.122-2.666,2.169c-4.318,0.158-4.442,3.171-4.52,6.326
		c-0.15,6.038,0.71,11.981,1.638,17.915c0.7,4.47,1.076,8.919,0.487,13.448c-0.642,4.943,1.213,7.887,5.923,9.421
		c1.036,0.337,2.698,0.328,3.441-0.285c2.897-2.39,6.207-4.128,7.77-8.202c4.099-10.682,9.961-20.487,16.679-29.755
		c0.878-1.212,1.921-2.309,2.929-3.421c0.853-0.941,1.944-1.412,3.218-1.185c6.176,1.103,11.575,3.489,14.242,9.649
		c1.785,4.123,3.507,8.277,4.346,12.766c2.786,14.911,3.352,29.848-0.084,44.679c-3.395,14.651-5.485,29.503-7.912,44.315
		c-1.112,6.79-2.744,13.643-5.269,20.02c-3.679,9.291-6.536,18.836-8.079,28.561c-1.06,6.681-3.384,12.639-5.846,18.709
		c-1.238,3.052-2.562,6.07-3.789,9.127c-5.672,14.126-13.709,26.649-24.826,37.154c-3.706,3.501-7.323,7.13-10.654,10.984
		c-3.311,3.831-7.358,5.085-12.085,4.272c-2.634-0.453-5.501-0.988-7.681-2.391c-9.084-5.844-18.621-11.089-26.564-18.545
		c-2.613-2.453-4.394-6.549-7.382-7.651c-3.563-1.314-6.075,3.675-10.002,4.469c-5.588,1.13-10.765,3.775-15.654,6.777
		c-3.362,2.064-6.819,3.814-10.761,4.417c-2.237,0.342-4.03,1.265-4.651,3.627c-0.428,1.628-2.001,2.14-2.965,3.24
		c-4.063,1.137-8.217,1.679-12.424,1.656c-9.021-0.048-17.919,1.322-26.77,2.702c-7.496,1.169-14.951,1.391-22.358,0.351
		c-7.75-1.089-15.483-1.259-23.261-1.182c-1.773,0.017-3.61,0.341-5.247-0.712c0.686-2.123,2.53-3.069,4.276-4.022
		c2.522-1.377,3.51-3.664,4.112-6.252c2.272,0.538,4.519,1.236,6.82,1.582c5.753,0.865,11.544,1.915,17.167-0.7
		c1.515,0.368,2.914,0.29,3.996-1.026c0.788-0.383,1.576-0.767,2.363-1.15c0.966,0.048,1.584-0.436,1.962-1.286
		c0.583-0.149,1.181-0.471,1.746-0.42c9.5,0.85,19.195-0.676,28.506,2.544c7.93,2.743,15.406,1.257,22.496-2.911
		c1.555-0.914,3.162-1.74,4.727-2.636c24.111-13.813,46.104-30.417,65.816-50.016c3.423-3.404,6.435-7.157,8.745-11.412
		c1.717-3.165,3.06-6.554,4.973-9.589c3.573-5.665,4.232-11.851,3.531-18.214c-0.432-3.917-0.439-7.747-0.166-11.665
		c0.938-13.463,2.157-26.92,1.903-40.437c-0.316-16.806-0.67-33.612-1.093-50.415c-0.181-7.202-0.589-14.399-0.868-21.599
		c-0.13-3.368-0.474-6.875-2.9-9.267c-3.304-3.259-3.833-7.17-4.3-11.406c-1.25-11.333-2.816-22.631-4.116-33.959
		c-0.512-4.456-2.233-8.047-6.058-10.511c-0.299-0.787-0.367-1.951-0.935-2.3c-3.449-2.117-6.937-4.205-10.578-5.958
		c-1.298-0.625-1.927,0.726-1.814,2.044c0.074,0.865,0.238,1.723,0.361,2.584c-2.005,1.514-1.777,3.561-1.517,5.724
		c0.864,7.199,0.826,14.368-0.601,21.529c-0.401,2.012-0.343,4.216-0.018,6.255c1.472,9.243,2.06,18.326-1.993,27.217
		c-1.222,2.682-1.604,5.802-2.057,8.769c-1.697,11.107-6.844,21.141-9.783,31.858c-0.234,0.854-0.776,1.623-1.179,2.429
		c-3.23,6.459-6.243,13.01-7.915,20.075c-1.197,5.061-3.575,9.523-6.405,13.834c-6.107,9.3-12.262,18.575-18.085,28.052
		c-5.807,9.452-11.915,18.794-14.534,29.844c-0.399,1.682-1.58,3.223-2.58,4.708c-2.687,3.99-5.684,7.787-8.16,11.899
		c-2.541,4.221-6.007,7.363-9.713,10.505c-15.693,13.309-29.421,28.369-39.962,46.167c-2.147,3.624-4.619,6.984-7.586,10.034
		c-2.408,2.474-4.838,4.499-8.467,4.483c-1.915-0.009-3.527,0.621-4.666,2.236c-8.302-0.543-16.562-1.745-24.924-1.373
		c-3.056,0.135-3.2-0.23-3.713-4.486c1.831-1.592,3.763-3.21,3.722-5.886c-0.07-4.554,2.909-6.085,6.557-7.383
		c4.808-1.711,9.53-3.679,14.22-5.698c1.965-0.846,3.797-1.825,6.013-1.096c2.654,0.874,4.971-0.302,6.554-2.032
		c3.907-4.267,8.772-7.268,13.291-10.712c3.458-2.635,6.371-5.4,7.118-9.966c0.226-1.385,1.083-2.819,2.023-3.91
		c8.231-9.551,16.065-19.424,24.054-29.17c8.756-10.681,17.401-21.444,25.883-32.336c6.646-8.534,13.22-17.186,17.758-27.074
		c3.762-8.197,7.448-16.416,11.809-24.318c0.57-1.034,1.261-2.206,1.265-3.316c0.026-8.229,3.484-15.842,4.175-23.938
		c3.768-8.518,7.375-17.089,8.722-26.407c2.287-7.777,4.708-15.518,6.818-23.342c1.644-6.092,3.426-12.222,4.21-18.452
		c1.196-9.513,1.26-19.139,3.664-28.54c1.36-5.32-0.287-10.094-4.893-13.57c-5.991-4.521-11.791-9.316-17.977-13.547
		c-2.647-1.811-5.537-4.51-8.848-4.09c-4.714,0.597-7.261-2.211-10.087-4.788c-10.06-9.173-21.165-16.825-33.255-23.048
		c-7.741-3.983-15.472-8-23.354-11.688c-4.286-2.005-8.736-4.187-13.745-1.641c-0.92,0.467-2.432,0.234-3.505-0.145
		c-4.491-1.583-8.272,0.145-11.939,2.359c-5.406,3.264-10.709,6.7-16.138,9.924c-6.956,4.131-13.539,8.999-21.61,10.981
		c-2.344,0.576-4.231,1.853-5.749,3.982c-1.898,2.663-5.309,4.596-6.303,7.457c-0.992,2.852,0.155,6.465,0.446,9.738
		c0.159,1.794,0.339,3.609,0.767,5.351c1.334,5.421,0.935,10.708-0.858,15.951c-0.486,1.42-0.864,2.883-1.198,4.348
		c-0.999,4.379-0.407,6.05,3.446,8.175c2.079,1.146,4.414,1.859,6.682,2.625c2.811,0.95,5.221,0.805,6.858-2.302
		c1.003-1.905,3.063-2.755,5.011-3.649c4.092-1.879,8.007-4.184,12.19-5.812c4.671-1.818,8.726-5.46,14.19-5.044
		c-3.971,3.167-7.648,6.825-11.968,9.409c-13.157,7.87-25.224,17.313-38.005,25.715c-3.152,2.072-3.408,2.772-0.865,6.361
		c1.863,2.63,1.443,5.043,0.724,7.666c-1.604,5.849-2.639,11.777-1.318,17.789c1.793,8.163,0.818,16.027-1.397,23.985
		c-1.587,5.7-4.564,11.177-3.539,17.474c0.168,1.036-0.49,2.326-1.052,3.341c-8.641,15.621-18.345,30.333-34.235,39.719
		c-1.806,1.067-3.609,2.207-5.19,3.572c-5.003,4.316-8.26,9.486-7.564,16.473c0.238,2.386,0.201,4.8,0.438,7.186
		c0.385,3.876,1.098,7.729,1.293,11.611c0.209,4.171-0.019,8.364-0.056,12.548c-4.058-0.904-5.286-4.073-4.953-7.497
		c0.756-7.789-2.252-14.794-3.951-22.07c-0.657-2.814-4.374-4.081-6.271-1.938c-2.066,2.333-4.324,4.05-7.131,5.275
		c-9.642,4.209-19.267,8.457-28.867,12.76c-6.292,2.82-12.53,5.76-18.792,8.646c-3.225-1.447-5.965-3.979-9.717-4.251
		c-4.676-0.338-9.367,0.217-11.845,4.497c-1.72,2.971-2.158,6.774-2.752,10.276c-0.405,2.391,2.059,4.784,4.48,4.493
		c3.833-0.462,7.745-0.881,11.182-2.875c2.91-1.689,6.055-2.442,9.345-2.779c2.342,2.696,4.445,5.66,7.079,8.032
		c4.97,4.476,9.272,9.187,11.523,15.754c1.548,4.516,4.088,8.617,9.319,10.309c2.185,0.707,3.934,2.703,5.947,4.012
		c10.142,6.599,17.564,16.278,26.951,23.781c4.819,3.852,9.676,7.034,15.546,8.641c4.058,1.111,8.188,1.956,12.282,2.939
		c5.253,1.261,10.44,2.493,15.187,5.425c3.57,2.206,7.827,3.316,12.115,2.784c3.63-0.45,6.53,0.159,8.599,3.38
		c1.119,1.743,2.949,1.883,4.79,1.906c-0.408,3.209,0.797,5.602,3.303,7.672c2.155,1.779,4.633,2.456,7.186,3.138
		c1.974,0.527,4.1,0.828,4.985,3.108c-3.118,0.635-5.937-0.629-8.779-1.501c-11.222-3.444-22.267-7.399-32.701-12.815
		c-8.605-4.466-17.83-7.257-26.971-10.176c-19.406-6.196-37.216-15.341-53.203-27.9c-6.174-4.85-12.538-9.361-19.372-13.146
		c-5.412-2.997-10.024-6.853-13.085-12.089c-3.587-6.136-9.824-9.698-13.828-15.358c-0.941-1.33-2.639-1.229-4.163-1.094
		c-7.475,0.661-14.969,1.159-22.417,2.044c-4.761,0.565-9.481,1.316-14.284,1.694c-5.085,0.4-9.977,2.479-14.287,5.172
		c-5.173,3.232-11.031,4.755-16.391,7.466c-1.535,0.776-3.528,1.177-5.231,0.995c-6.257-0.672-12.497-1.562-18.704-2.608
		c-1.362-0.229-3.1-1.126-3.746-2.245c-4.655-8.075-13.168-9.936-20.774-13.252c-9.628-4.196-19.407-8.066-28.893-12.558
		c-8.98-4.252-17.585-9.201-23.599-17.586c-1.017-1.418-2.799-2.261-4.072-3.527c-1.268-1.261-2.772-2.541-3.431-4.121
		c-5.879-14.097-13.327-27.653-15.313-43.129c-0.382-2.977-0.91-5.977-0.869-8.96c0.108-7.865-1.151-15.558-2.255-23.299
		c-1.018-7.134-1.87-14.325-2.199-21.519c-0.822-17.991-3.114-35.938-1.522-54.017c0.452-5.136,1.702-10.067,2.58-15.093
		c0.881-5.041,0.642-5.887-3.949-7.518c-9.9-3.517-19.539-7.93-29.875-10.024c-13.602-2.756-26.74-6.984-39.806-11.521
		c-6.848-2.378-13.891-3.821-21.092-4.628c-12.62-1.414-24.899-4.116-36.415-9.74c-2.416-1.18-5.092-1.819-7.631-2.755
		c-4.34-1.6-7.899-4.296-10.787-7.881c-1.889-2.344-1.397-4.551,1.462-5.707c1.923-0.778,4.003-1.541,6.037-1.61
		c9.599-0.33,19.206-0.473,28.812-0.579c10.604-0.116,20.895,1.706,31.039,4.804c5.442,1.662,11.055,2.924,16.68,3.798
		c13.456,2.092,26.317,6.316,38.998,10.97c5.975,2.192,11.986,3.907,18.157,5.184c5.292,1.095,10.645,1.896,15.972,2.827
		c0,0,0.377,0.621,0.374,0.616c-3.167,6.242-3.844,13.218-5.773,19.827c-0.325,1.112-0.269,2.383-0.171,3.562
		c0.384,4.626,1.685,6.316,6.251,7.603c4.624,1.303,9.318,2.36,13.981,3.525c-1.353,5.19-1.454,10.801-5.105,15.22
		c-1.378,8.44-4.866,17.036,1.826,24.88c1.286,1.508,1.256,3.246,1.149,5.096c-0.777,13.47-0.633,26.987-2.489,40.408
		c-0.611,4.418-0.234,8.99-0.122,13.487c0.305,12.291,2.542,24.508,1.448,36.854c-0.29,3.27,1.152,5.858,3.198,8.145
		c1.881,2.102,3.005,4.227,2.758,7.265c-0.161,1.975,1.408,4.089,1.253,6.066c-0.667,8.474,4.003,13.368,10.661,17.257
		c2.054,1.2,4.008,2.748,5.621,4.494c5.037,5.454,11.649,8.45,18.063,11.659c4.306,2.154,8.742,3.124,13.8,0.809
		c5.602-2.564,11.257,0.087,16.392,2.424c5.166,2.351,10.019,5.423,14.894,8.368c3.647,2.204,7.526,3.707,11.587,4.888
		c3.154,0.917,5.85,0.43,8.377-1.745c2.271-1.955,4.761-3.653,7.12-5.508c3.424-2.693,6.927-4.62,11.546-2.859
		c2.067,0.788,4.135-0.247,5.991-1.315c3.418-1.967,6.527-4.282,8.691-7.685c3.058-4.81,6.229-9.55,9.198-14.414
		c0.966-1.583,1.814-3.128,3.696-3.68c3.537-1.037,5.2-3.786,6.603-6.895c2.836-6.283,6.171-12.379,6.866-19.419
		c1.877-0.461,2.896-1.949,3.861-3.396C394.031,649.103,398.178,642.743,401.114,635.692z M801.695,730.513
		c4.037-7.086,6.398-14.795,8.302-22.656c0.987-4.075,1.746-8.206,2.608-12.311c3.58-13.041,9.626-25.088,15.114-37.357
		c1.723-3.853,2.464-7.304-1.301-10.56c-3.029-2.62-3.426-6.124-2.346-9.933c1.231-4.342,2.245-8.745,3.385-13.114
		c0.616-2.36,1.009-4.65-0.046-7.045c-1.912-4.342-1.575-8.79-0.334-13.253c0.483-1.736,0.977-3.501,1.15-5.283
		c0.32-3.283-2.869-7.229-6.147-7.873c-2.411-0.474-4.309,0.807-5.743,4.512c-1.769,4.568-4.514,8.44-7.674,12.091
		c-2.166,2.501-4.619,4.834-6.36,7.609c-5.12,8.159-10.995,15.676-17.639,22.639c-1.634,1.712-2.723,3.938-4.121,5.887
		c-0.764,1.066-1.176,2.359-0.54,3.368c2.479,3.937,0.379,6.878-1.924,9.757c-1.087,1.359-3.066,2.315-3.521,3.797
		c-0.741,2.416,2.144,3.254,3.301,4.89c0.984,1.392,0.724,2.77,0.67,4.276c-0.351,9.861-0.671,19.724-0.877,29.589
		c-0.225,10.796-0.122,21.638-3.832,31.984c-1.263,3.521,0.148,7.453-1.39,10.579c-1.673,3.399-5.108,5.905-6.939,9.257
		c-5.325,9.749-12.413,17.595-22.326,22.772c-5.365,2.802-10.236,6.318-14.474,10.629c-4.969,5.056-4.823,9.165,0.461,13.804
		c4.316,3.789,9.485,6.311,14.487,8.996c3.024,1.623,6.406,1.508,9.404-0.69c0.968-0.71,2.013-1.318,2.969-2.042
		c5.933-4.496,9.634-11.532,16.796-14.689c0.915-0.404,1.31-1.95,1.987-2.938c1.527-2.227,2.978-4.516,4.644-6.635
		c3.167-4.032,5.631-8.385,7.837-13.051c2.414-5.107,4.768-10.293,7.873-15.122c3.527-5.484,6.597-11.35,6.03-18.319
		C801.087,732.91,801.511,731.701,801.695,730.513z"/>
	<path fill="#CDA28D" d="M670.643,812.454c0.964-1.099,2.538-1.612,2.965-3.24c0.62-2.363,2.414-3.285,4.651-3.627
		c3.942-0.602,7.399-2.352,10.761-4.417c4.89-3.002,10.067-5.647,15.654-6.777c3.927-0.794,6.439-5.783,10.002-4.469
		c2.989,1.102,4.769,5.198,7.382,7.651c7.943,7.456,17.481,12.702,26.564,18.545c2.18,1.403,5.047,1.938,7.681,2.391
		c4.726,0.813,8.773-0.441,12.085-4.272c3.331-3.853,6.949-7.482,10.654-10.984c11.117-10.505,19.154-23.028,24.826-37.154
		c1.227-3.057,2.551-6.075,3.789-9.127c2.462-6.07,4.786-12.028,5.846-18.709c1.543-9.726,4.4-19.271,8.079-28.561
		c2.525-6.377,4.157-13.23,5.269-20.02c2.426-14.812,4.517-29.664,7.912-44.315c3.436-14.83,2.87-29.768,0.084-44.679
		c-0.839-4.489-2.561-8.643-4.346-12.766c-2.667-6.161-8.066-8.547-14.242-9.649c-1.274-0.227-2.366,0.244-3.218,1.185
		c-1.008,1.113-2.05,2.209-2.929,3.421c-6.718,9.268-12.58,19.073-16.679,29.755c-1.563,4.074-4.873,5.812-7.77,8.202
		c-0.743,0.613-2.405,0.623-3.441,0.285c-4.711-1.534-6.566-4.478-5.923-9.421c0.589-4.529,0.213-8.978-0.487-13.448
		c-0.929-5.934-1.789-11.877-1.638-17.915c0.079-3.155,0.202-6.168,4.52-6.326c1.305-0.048,2.059-1.095,2.666-2.169
		c1.235-2.187,3.282-3.449,5.323-4.74c2.638-1.669,5.381-2.846,8.489-1.513c3.004,1.288,5.826,0.649,8.757-0.275
		c3.724-1.174,7.518-2.124,11.29-3.141c4.077-1.099,8.021-2.339,11.339-5.225c7.012-6.099,13.612-4.513,21.623,0.356
		c8.188,4.976,16.467,9.739,24.861,14.323c1.781,3.783,6.406,4.419,8.603,7.712c2.209,3.311,5.58,4.356,9.194,5.02
		c2.354,0.802,4.13,2.318,5.444,4.408c0.735,2.375,2.819,3.081,4.813,3.899c0,0-0.107-0.163-0.106-0.163
		c-0.14,1.324,0.64,2.23,1.396,3.171c6.541,8.15,15.011,13.751,24.198,18.435c2.401,1.224,5.398,2.147,6.878,4.134
		c3.248,4.364,7.86,5.083,12.481,6.327c4.622,1.244,9.556,1.933,13.35,5.18c3.716,3.18,7.844,5.486,12.377,7.252
		c1.929,0.752,3.97,1.777,5.361,3.246c5.305,5.601,11.937,8.973,18.855,11.959c1.104,0.477,2.242,0.923,3.253,1.56
		c3.38,2.128,6.297,4.646,7.134,8.861c0.474,2.386,1.065,4.926,3.345,6.156c3.69,1.99,3.107,4.4,1.601,7.514
		c-1.791,3.7-1.59,3.797,1.517,6.617c2.653,2.407,3.105,3.241,1.41,6.015c-2.855,4.673-4.349,9.88-6.467,14.838
		c-1.431,3.35-1.216,4.002,1.655,5.915c1.22,0.813,2.821,1.072,3.828,3.089c-2.556,4.459-6.66,7.998-10.317,11.895
		c-5.344,5.695-11.303,10.947-14.899,18.01c-8.021,15.757-18.915,29.234-31.839,41.17c-1.099-1.348-0.912-2.709-0.144-4.154
		c3.229-6.076,6.461-12.15,9.613-18.266c1.088-2.112,0.408-3.394-1.748-3.822c-2.648-0.526-5.327-0.946-7.929-1.648
		c-2.436-0.658-4.733-0.856-6.923,0.613c-5.386,3.612-10.43,0.899-15.415-0.987c-2.633-0.996-3.047-3.87-0.865-5.779
		c4.587-4.012,8.173-8.79,11.336-13.928c0.447-0.727,0.527-1.747-0.379-2.223c-0.382-0.201-1.269,0.043-1.628,0.392
		c-5.162,5.023-10.469,9.92-15.316,15.235c-2.587,2.838-4.576,6.234-5.333,10.272c-0.717,3.824-2.418,7.31-4.262,10.823
		c-3.741,7.127-8.598,13.809-10.006,22.025c-0.145,0.846-0.748,1.627-1.19,2.408c-3.128,5.529-7.639,10.005-11.555,14.927
		c-0.527,0.662-2.23,0.387-3.389,0.546c6.264-13.289,12.246-26.72,18.866-39.83c7.312-14.481,13.097-29.537,18.499-44.787
		c3.602-10.168,7.511-20.227,11.286-30.333c1.971-5.277,3.536-10.586,1.356-16.911c-0.833,1.589-1.366,2.627-1.918,3.655
		c-3.688,6.867-6.289,14.23-10.07,21.089c-9.698,17.596-19.46,35.188-28.247,53.244c-7.615,15.648-15.257,31.26-23.85,46.385
		c-4.291,7.553-8.466,15.212-13.805,22.117c-4.406,5.697-8.866,11.353-13.403,16.944c-1.346,1.659-2.623,3.275-3.056,5.413
		c-2.801,1.028-5.602,2.056-8.403,3.083c-2.41-0.673-4.74,0.05-7.114,0.33c-8.027,0.945-16.055,1.931-24.109,2.585
		c-3.863,0.314-7.883,0.296-10.343-3.777c-1.047-1.734-2.859-1.893-4.75-1.845c-3.593,0.091-7.191-0.035-10.783,0.068
		c-7.784,0.223-15.564,0.706-23.349,0.769c-12.451,0.101-24.227-3.631-36.1-6.762c-5.847-1.542-11.31-3.955-16.479-7.034
		c-8.737-5.203-17.2-10.902-26.852-14.411c-1.097-0.399-2.028-1.254-3.036-1.898C675.216,815.252,673.402,813.481,670.643,812.454z
		 M945.464,656.893c0.187-0.207,0.417-0.397,0.565-0.636c1.906-3.088-0.161-6.411,0.579-9.601c1.426-6.142-2.752-9.887-6.228-13.873
		c-0.309-0.355-1.284-0.582-1.623-0.363c-0.675,0.437-1.426,1.156-1.593,1.884c-0.253,1.104-0.317,2.409,0.032,3.466
		c1.861,5.63,3.853,11.218,5.858,16.799C943.453,655.677,944.094,656.706,945.464,656.893z M946.223,660.587
		c-0.4-0.316-0.914,0.572-1.324,1.233c-0.65,1.047-0.587,2.309,0.275,3.092c0.381,0.347,1.876,0.176,2.201-0.258
		C948.273,663.455,948.365,662.066,946.223,660.587z"/>
	<path fill="#473A1C" d="M846.63,847.27c0.432-2.137,1.71-3.753,3.056-5.413c4.538-5.592,8.998-11.248,13.403-16.944
		c5.34-6.905,9.514-14.564,13.805-22.117c8.593-15.125,16.235-30.737,23.85-46.385c8.787-18.056,18.549-35.648,28.247-53.244
		c3.781-6.859,6.382-14.222,10.07-21.089c0.552-1.028,1.085-2.067,1.918-3.655c2.18,6.325,0.615,11.633-1.356,16.911
		c-3.775,10.106-7.684,20.165-11.286,30.333c-5.402,15.25-11.187,30.306-18.499,44.787c-6.619,13.11-12.602,26.54-18.861,39.829
		c-2.565,2.836-4.885,5.816-5.567,9.733c-0.809,1.231-1.8,2.381-2.392,3.709c-1.587,3.56-0.836,5.849,2.62,7.06
		c3.611,1.265,7.344,2.688,11.095,2.925c4.98,0.315,10.129-0.229,12.833-5.653l-0.139,0.073c0.7-0.514,1.4-1.028,2.099-1.542
		c2.245-0.474,3.799-2.643,6.589-2.045c4.871,1.045,8.64-1.155,11.619-4.947c5.871-7.473,12.008-14.752,17.562-22.453
		c3.097-4.294,6.847-8.226,8.81-13.295c12.924-11.935,23.818-25.412,31.839-41.169c3.596-7.063,9.555-12.315,14.899-18.01
		c3.657-3.897,7.76-7.436,10.317-11.895c-1.006-2.017-2.608-2.276-3.828-3.089c-2.87-1.913-3.086-2.565-1.655-5.915
		c2.118-4.958,3.612-10.165,6.467-14.838c1.695-2.774,1.242-3.608-1.41-6.015c-3.107-2.82-3.308-2.917-1.517-6.617
		c1.507-3.113,2.09-5.524-1.601-7.514c-2.28-1.229-2.871-3.77-3.345-6.156c-0.837-4.215-3.754-6.733-7.134-8.861
		c-1.011-0.637-2.149-1.083-3.253-1.56c-6.919-2.985-13.55-6.357-18.855-11.959c-1.391-1.469-3.432-2.494-5.361-3.246
		c-4.533-1.767-8.661-4.072-12.377-7.252c-3.794-3.247-8.727-3.935-13.35-5.18c-4.621-1.244-9.232-1.963-12.481-6.327
		c-1.479-1.987-4.476-2.91-6.878-4.134c-9.187-4.684-17.657-10.285-24.198-18.435c-0.756-0.941-1.536-1.847-1.396-3.171
		c3.833,0.258,6.384,3.206,9.673,4.641c8.54,3.724,16.827,8.054,25.464,11.524c16.585,6.664,31.811,15.681,46.379,25.878
		c8.127,5.689,16.268,11.372,23.8,17.874c7.78,6.716,14.77,14.126,20.768,22.484c6.23,8.682,8.74,18.288,7.88,28.926
		c-0.636,7.862-2.283,15.479-4.86,22.893c-2.468,7.099-5.16,14.12-7.733,21.183c-0.801,2.199,0.479,4.062,2.397,3.194
		c6.02-2.724,11.154-0.867,16.094,2.511c8.997,6.15,19.066,8.67,29.815,9.012c2.703,0.086,5.404,0.302,8.098,0.537
		c7.02,0.611,13.572,2.65,19.432,6.639c5.113,3.48,10.674,5.315,16.905,5.543c4.813,0.176,9.552,1.227,14.135,2.796
		c9.288,3.182,15.962,9.381,20.522,17.962c0.251,0.474,0.331,1.269,0.103,1.717c-0.416,0.818-1.291,1.259-2.219,0.929
		c-6.033-2.145-12.377-2.412-18.644-3.111c-5.765-0.643-11.22-2.236-16.232-5.15c-8.23-4.787-17.142-7.156-26.577-7.776
		c-10.92-0.718-21.331-3.366-31.224-8.081c-4.947-2.357-10.31-3.821-15.667-3.958c-7.361-0.188-14.309-1.712-21.144-4.118
		c-2.369-0.834-4.06-0.424-5.318,1.768c-0.748,1.303-1.618,2.537-2.348,3.85c-12.546,22.553-30.586,39.991-51.242,54.974
		c-20.749,15.049-42.786,27.922-66.036,38.699c-10.582,4.904-21.646,7.179-33.321,5.222c-2.658-0.446-5.452,0.27-8.002-0.987
		c3.059-3.213,5.821-6.794,9.241-9.56c6.769-5.476,12.526-11.754,16.853-19.267c1.177-2.043,4.743-4.199,1.999-6.748
		c-2.026-1.882-4.475,0.793-6.265,2.062c-7.439,5.274-16.432,6.926-24.451,10.815C848.569,847.721,847.517,847.325,846.63,847.27z"
		/>
	<path fill="#473A1C" d="M675.312,818.377c1.008,0.644,1.939,1.5,3.036,1.898c9.652,3.509,18.115,9.208,26.852,14.411
		c5.169,3.079,10.632,5.492,16.479,7.034c11.874,3.131,23.649,6.863,36.1,6.762c7.784-0.063,15.564-0.546,23.349-0.769
		c3.592-0.103,7.19,0.023,10.783-0.068c1.891-0.047,3.703,0.112,4.75,1.845c2.46,4.073,6.48,4.091,10.343,3.777
		c8.053-0.655,16.082-1.64,24.109-2.585c2.374-0.279,4.704-1.003,7.114-0.329c-0.451,1.421-0.727,2.928-1.382,4.247
		c-3.133,6.303-3.03,6.062,3.254,10.015c2.712,1.706,6.211,2.28,8.12,5.23c-9.698,1.131-19.24-0.479-28.615-2.406
		c-13.903-2.859-27.857-4.418-42.035-4.77c-8.095-0.201-16.188-1.226-24.241-2.212c-12.378-1.517-24.027-5.457-34.883-11.585
		c-6.014-3.395-11.844-7.114-17.794-10.625c-4.396-2.594-8.872-5.051-13.275-7.633c-3.626-2.125-7.276-4.228-10.759-6.572
		c-1.709-1.15-3.105-2.787-4.544-4.297c-0.3-0.316-0.166-1.046-0.231-1.586c0.569-0.054,1.143-0.179,1.707-0.143
		C674.142,818.056,674.725,818.251,675.312,818.377z"/>
	<path fill="#473A1C" d="M284.793,374.245c-6.624,5.201-12.821,10.912-17.639,17.808c-3.462,4.956-7.267,9.587-11.383,13.928
		c-7.646,8.065-12.217,17.837-15.542,28.12c-3.408,10.537-6.971,21.155-6.881,32.484c0.002,0.297-0.145,0.6-0.119,0.891
		c0.348,3.896-4.744,6.084-3.577,9.822c1.015,3.25,1.519,6.342,1.185,9.652l-0.656,0.412c-3.222-1.38-6.876-1.506-9.878-3.577
		c-3.482-2.402-7.446-3.315-11.646-3.28l-0.377-0.621c2.418-7.417,4.818-14.841,7.257-22.251
		c5.925-18.006,13.891-35.129,22.501-51.975c3.201-6.263,7.638-11.467,13.229-15.682c9.377-7.069,19.605-12.781,29.818-18.51
		c0.517-0.29,1.112-0.449,1.682-0.632C284.43,370.298,285.11,371.446,284.793,374.245z"/>
	<path fill="#473A1C" d="M496.359,385.894c-6.497-0.845-12.995-1.689-19.491-2.533c-5.266-2.676-10.53-5.357-15.806-8.014
		c-0.238-0.12-0.61-0.101-0.877-0.015c-1.146,0.369,0.934,0.871-1.224,0.488c3.645,4.396,6.821,8.227,9.998,12.057
		c-0.199,1.038-0.398,2.075-0.596,3.113c-4.875-2.939-9.821-5.768-14.606-8.846c-5.291-3.403-10.285-7.241-14.441-12.003
		c-6.807-7.797-14.942-13.81-24.153-18.426c-8.574-4.296-17.18-8.527-25.742-12.845c-1.864-0.94-3.695-2.001-5.375-3.233
		c-1.618-1.187-6.172-3.515-7.73-3.819c-0.431-0.084-0.733-0.823-1.095-1.262c2.804-1.993,5.697-2.82,9.278-2.028
		c5.321,1.177,10.429,2.684,15.154,5.472c6.207,3.662,12.339,7.439,17.991,11.918c3.84,3.043,8.024,5.095,12.865,6.066
		c6.8,1.363,13.241,3.819,19.425,7.004c10.398,5.355,20.937,10.438,31.271,15.911C486.735,377.829,492.225,380.968,496.359,385.894z
		"/>
	<path fill="#473A1C" d="M848.218,869.846c-1.909-2.95-5.408-3.524-8.12-5.23c-6.284-3.953-6.387-3.713-3.254-10.015
		c0.655-1.319,0.931-2.826,1.382-4.247c2.801-1.029,5.602-2.057,8.403-3.084c0.887,0.055,1.94,0.451,2.637,0.113
		c8.019-3.889,17.013-5.541,24.451-10.815c1.79-1.269,4.239-3.944,6.265-2.062c2.745,2.549-0.822,4.704-1.999,6.748
		c-4.327,7.513-10.084,13.792-16.853,19.267c-3.42,2.767-6.182,6.348-9.241,9.561C850.666,870.003,849.442,869.925,848.218,869.846z
		"/>
	<path fill="#473A1C" d="M588.972,804.994c-0.602,2.588-1.59,4.876-4.112,6.252c-1.746,0.953-3.59,1.9-4.276,4.022
		c-4.262-0.11-8.383-0.96-12.394-2.379c-0.885-2.281-3.011-2.581-4.985-3.108c-2.553-0.682-5.031-1.359-7.186-3.138
		c-2.506-2.069-3.711-4.463-3.302-7.67c1.01-1.88,2.663-2.48,4.683-2.345c0.514,4.256,0.657,4.622,3.713,4.486
		c8.362-0.371,16.622,0.83,24.923,1.374C587.014,803.324,587.993,804.159,588.972,804.994z"/>
	<path fill="#65B373" d="M890.842,584.363c-3.615-0.664-6.985-1.708-9.194-5.02c-2.197-3.293-6.821-3.929-8.603-7.712
		c0.259-0.957,0.517-1.92,0.776-2.882C880.676,572.668,886.315,577.909,890.842,584.363z"/>
	<path fill="#473A1C" d="M303.935,360.764c-3.207,4.159-7.486,6.636-12.504,7.956c-0.894-0.35-1.783-0.698-2.673-1.047
		C293.223,364.067,298.473,362.183,303.935,360.764z"/>
	<path fill="#473A1C" d="M288.758,367.674c0.889,0.349,1.779,0.697,2.673,1.047c-1.184,1.255-2.372,2.51-3.56,3.765
		c-2.483-0.898-3.211-1.95-2.034-3.198C286.563,368.517,287.768,368.196,288.758,367.674z"/>
	<path fill="#473A1C" d="M901.099,592.67c-1.993-0.818-4.078-1.524-4.813-3.899C897.538,590.504,900.434,590.211,901.099,592.67z"/>
	<path fill="#473A1C" d="M307.839,359.807c-1.155,0.269-2.309,0.538-3.459,0.805C305.535,360.343,306.687,360.075,307.839,359.807z"
		/>
	<path fill="#BD8570" d="M382.122,516.239c0.901,2.192,0.422,3.707-0.281,4.888c-3.607,6.061-5.007,12.871-6.583,19.563
		c-1.536,6.523-4.14,12.627-7.509,18.219c-3.271,5.428-5.585,11.255-8.531,16.798c-2.354,4.429-1.582,6.445,2.621,8.831
		c1.564,0.888,3.101,1.84,4.724,2.606c5.538,2.615,8.731,1.937,12.726-2.725c1.547-1.805,2.865-3.808,4.436-5.589
		c0.577-0.654,1.644-0.812,2.451-0.165c0.42,0.337,0.862,0.913,0.896,1.409c0.059,0.88-0.081,1.809-0.32,2.667
		c-0.946,3.392,0.225,5.551,3.208,7.505c3.14,2.058,2.802,2.486,1.597,5.918c-4.002,11.399-10.184,21.64-16.422,31.892
		c-5.451,8.958-10.5,18.161-15.725,27.257c-0.299,0.52-0.742,1.018-0.849,1.577c-1.404,7.294-6.337,12.081-11.729,16.517
		c-4.862,4-8.906,8.835-13.964,12.702c-8.47,6.477-17.943,8.236-27.921,6.596c-9.745-1.601-19.319-4.245-28.226-8.891
		c-7.383-3.852-13.449-8.934-17.355-16.387c-0.553-1.055-0.802-2.514-1.661-3.123c-5.367-3.798-7.452-10.12-11.654-14.819
		c-3.633-4.063-5.491-9.246-7.425-14.286c-0.414-1.079-0.672-2.402-0.457-3.507c1.058-5.448-0.058-10.734-0.734-16.097
		c-0.826-6.543-1.118-13.137-0.3-19.736c1.034-8.341,0.777-16.723,0.538-25.093c-0.097-3.398,0.756-6.556,1.995-9.626
		c0.872-2.161,2.652-3.369,5.003-2.97c9.38,1.59,17.939,4.875,24.067,12.63c1.335,1.69,2.628,3.157,4.743,3.923
		c6.667,2.415,11.831,6.949,16.618,12.014c1.852,1.96,3.925,3.709,5.886,5.567c1.436,1.361,3.004,1.9,4.893,0.945
		c3.048-1.541,5.815-0.819,8.435,1.081c0.484,0.351,0.997,0.682,1.539,0.93c2.942,1.349,4.009,1.033,5.928-1.698
		c3.092-4.399,4.445-4.832,8.746-3.42c2.725,0.894,4.743,4.297,8.161,2.637c2.849-1.384,3.782-4.564,5.684-6.847
		c5.794-6.953,9.556-15.224,14.339-22.839c5.73-9.122,11.208-18.403,16.688-27.68c2.893-4.898,5.502-9.963,8.357-14.884
		C379.604,519.063,380.856,517.828,382.122,516.239z"/>
	<path fill="#473A1C" d="M230.837,486.949c11.596,2.928,22.908,6.845,34.946,8.18c7.39,0.82,14.632,3.227,21.845,5.261
		c2.528,0.713,4.855,2.304,7.128,3.727c6.669,4.173,13.735,7.222,21.469,8.916c8.2,1.796,16.302,4.045,24.433,6.149
		c3.095,0.801,4.074,1.904,4.076,5.003c0.001,2.38-0.251,4.791-0.691,7.132c-1.093,5.81-1.899,6.939-8.337,5.722
		c-9.394-1.776-18.964-2.854-28.508-3.532c-7.266-0.516-14.16-2.42-21.177-3.948c-6.15-1.34-12.332-2.546-18.446-4.031
		c-4.343-1.055-8.617-2.414-12.887-3.749c-7.736-2.418-15.458-4.822-23.618-5.449c-1.421-0.109-2.781-1.01-4.17-1.542
		c0.593-9.2,3.407-18.138,3.281-27.427L230.837,486.949z"/>
	<path fill="#473A1C" d="M230.181,487.362c0.126,9.289-2.688,18.227-3.281,27.427c-1.319,0.074-2.638,0.151-3.958,0.228
		c-4.664-1.165-9.357-2.222-13.981-3.525c-4.566-1.287-5.867-2.977-6.251-7.603c-0.098-1.179-0.154-2.45,0.171-3.562
		c1.93-6.609,2.606-13.585,5.773-19.827c4.203-0.029,8.166,0.883,11.649,3.285C223.306,485.856,226.96,485.981,230.181,487.362z"/>
	<path fill="#F6DF9F" d="M467.485,387.688c-3.544-3.886-7.088-7.772-11.154-12.231c2.351,0.435,0.081-0.116,1.316-0.454
		c0.288-0.079,0.69-0.088,0.952,0.037c5.793,2.773,11.573,5.57,17.355,8.361c-1.369,0.663-2.683,1.442-4.121,1.955
		c-1.237,0.44-2.259,0.949-2.668,2.169C468.598,387.549,468.039,387.602,467.485,387.688z"/>
	<path fill="#F6DF9F" d="M401.114,635.692c-2.935,7.05-7.082,13.411-11.293,19.729c-0.965,1.448-1.984,2.935-3.861,3.396
		c1.902-8.708,7.334-15.396,12.753-22.069C399.203,636.145,400.299,636.033,401.114,635.692z"/>
	<path fill="#65B373" d="M468.959,387.877c0.513-0.1,1.03-0.167,1.552-0.203c-0.587,1.186,0.457,3.442-2.155,3.309
		C468.562,389.952,468.76,388.915,468.959,387.877z"/>
	<path fill="#CDA28D" d="M557.4,796.629c-2.02-0.134-3.673,0.465-4.683,2.345c-1.842-0.025-3.671-0.164-4.791-1.907
		c-2.068-3.22-4.969-3.83-8.599-3.38c-4.288,0.531-8.545-0.578-12.115-2.784c-4.746-2.933-9.934-4.164-15.187-5.425
		c-4.093-0.983-8.224-1.828-12.282-2.939c-5.87-1.607-10.727-4.789-15.546-8.641c-9.388-7.503-16.809-17.182-26.951-23.781
		c-2.013-1.31-3.762-3.305-5.947-4.012c-5.231-1.692-7.771-5.794-9.319-10.309c-2.252-6.568-6.553-11.278-11.523-15.754
		c-2.635-2.372-4.737-5.336-7.082-8.033c-0.271-3.118-1.652-6.154-0.69-9.361c6.262-2.886,12.5-5.827,18.792-8.646
		c9.6-4.303,19.226-8.551,28.867-12.76c2.806-1.225,5.064-2.942,7.131-5.275c1.897-2.143,5.614-0.875,6.271,1.938
		c1.698,7.276,4.707,14.281,3.951,22.07c-0.332,3.423,0.895,6.592,4.954,7.498c3.687,5.285,9.481,7.156,15.139,9.063
		c6.555,2.209,13.363,3.361,20.276,3.811c0.666,0.929,1.162,2.077,2.027,2.75c3.634,2.826,4.565,2.807,7.27-0.607
		c6.068-7.659,11.245-15.909,15.74-24.582c0.393-0.757,0.408-1.71,0.599-2.572l-0.088,0.095c2.686-0.583,3.779-2.929,4.89-4.924
		c5.559-9.98,12.483-19.082,18.387-28.817c6.368-10.501,12.169-21.354,17.995-32.173c5.561-10.327,10.221-20.996,12.18-32.731
		c1.036-6.205,2.714-12.322,4.409-18.394c1.936-6.933,3.855-13.91,6.457-20.606c1.963-5.053,3.957-10.087,5.122-15.348
		c1.832-8.274,5.074-16.054,8.481-23.685c2.306-5.164,2.901-10.313,3.139-15.707c0.125-2.832-0.917-5.298-2.455-7.577
		c-1.064-1.576-2.572-2.809-4.516-2.355c-4.635,1.083-9.551,1.188-13.785,3.747c-6.08,0.699-11.711,2.515-16.428,6.604
		c-1.005-0.046-1.779,0.341-2.291,1.221l0.186-0.064c-5.464-0.416-9.52,3.225-14.19,5.043c-4.183,1.628-8.098,3.933-12.19,5.812
		c-1.948,0.894-4.007,1.744-5.011,3.649c-1.636,3.107-4.047,3.251-6.858,2.302c-2.268-0.766-4.603-1.479-6.682-2.625
		c-3.853-2.125-4.445-3.795-3.446-8.175c0.334-1.465,0.712-2.928,1.198-4.348c1.792-5.243,2.192-10.53,0.858-15.951
		c-0.429-1.742-0.608-3.557-0.767-5.351c-0.291-3.272-1.438-6.886-0.446-9.738c0.995-2.861,4.405-4.794,6.303-7.457
		c1.518-2.129,3.406-3.406,5.749-3.982c8.072-1.983,14.654-6.85,21.61-10.981c5.429-3.224,10.732-6.66,16.138-9.924
		c3.668-2.214,7.448-3.942,11.939-2.359c1.073,0.378,2.585,0.612,3.505,0.145c5.009-2.546,9.46-0.364,13.745,1.641
		c7.882,3.688,15.614,7.704,23.354,11.688c12.09,6.222,23.195,13.875,33.255,23.048c2.826,2.577,5.373,5.385,10.087,4.788
		c3.311-0.42,6.201,2.28,8.848,4.09c6.187,4.231,11.986,9.026,17.977,13.547c4.606,3.476,6.253,8.25,4.893,13.57
		c-2.404,9.401-2.468,19.027-3.664,28.54c-0.784,6.231-2.566,12.36-4.21,18.452c-2.111,7.824-4.531,15.565-6.818,23.342
		c-5.519,7.94-9.91,16.252-8.723,26.407c-0.691,8.096-4.149,15.709-4.175,23.938c-0.004,1.11-0.694,2.282-1.265,3.316
		c-4.361,7.902-8.047,16.122-11.809,24.318c-4.538,9.888-11.112,18.541-17.758,27.074c-8.482,10.892-17.127,21.655-25.883,32.336
		c-7.99,9.746-15.824,19.618-24.054,29.17c-0.94,1.091-1.796,2.525-2.023,3.91c-0.747,4.566-3.66,7.331-7.118,9.966
		c-4.519,3.444-9.384,6.445-13.291,10.712c-1.584,1.729-3.9,2.906-6.554,2.032c-2.216-0.729-4.048,0.249-6.013,1.096
		c-4.689,2.02-9.412,3.987-14.22,5.698c-3.648,1.298-6.626,2.829-6.557,7.383C561.163,793.418,559.23,795.036,557.4,796.629z
		 M664.093,570.524c-1.103,6.01-4.121,11.595-7.175,17.074c-7.153,12.833-14.618,25.492-21.931,38.237
		c-1.19,2.073-2.766,4.105-3.268,6.356c-1.226,5.5-4.386,9.807-7.591,14.177c-6.92,9.436-13.812,18.892-20.668,28.374
		c-6.857,9.484-13.44,19.176-20.561,28.456c-4.562,5.944-9.558,11.643-14.946,16.844c-6.45,6.227-15.042,9.907-20.943,16.919
		c-0.739,0.878-1.977,1.348-3.013,1.96c-5.181,3.063-10.503,5.913-15.52,9.225c-4.32,2.852-8.088,2.599-12.564,0.155
		c-6.288-3.433-12.659-6.917-19.884-8.164c-1.947-0.336-4.379-1.876-5.581,0.745c-0.784,1.71,0.828,3.374,1.935,4.791
		c0.549,0.703,1.222,1.342,1.939,1.876c7.913,5.894,14.844,13.102,23.78,17.631c5.606,2.841,11.016,6.063,17.209,7.614
		c3.296,0.825,6.256,1.523,9.21-1.233c1.897-1.769,4.554-0.808,6.936-0.336c5.838,1.159,11.362,0.464,16.294-3.14
		c6.311-4.612,13.999-6.537,20.465-11.153c7.041-5.027,14.467-9.54,21.191-15.055c14.261-11.697,26.122-25.685,37.947-39.706
		c0.963-1.142,1.794-2.402,2.626-3.648c7.671-11.481,21.801-37.775,28.512-50.923c2.608-5.11,4.301-10.536,6.613-15.709
		c3.271-7.319,6.666-14.724,8.431-22.73c1.609-7.301,3.096-14.722,7.001-21.331c0.739-1.25,0.86-2.869,1.244-4.324
		c1.842-6.984,3.596-13.993,5.535-20.95c2.04-7.323,2.997-14.69,1.475-22.224c-0.384-1.9,0.071-3.434,1.103-5.074
		c1.75-2.781,3.456-5.646,4.7-8.674c1.561-3.8,1.081-5.194-2.676-7.359c-4.882-2.813-9.5-5.641-13.503-9.893
		c-3.325-3.532-8.209-6.899-13.304-1.498c-0.342,0.362-1.176,0.526-1.699,0.41c-5.258-1.166-5.985,2.547-6.784,6.206
		c-0.64,2.931-1.434,5.806-1.294,8.889c0.25,5.529-1.24,10.711-3.86,15.545c-3.359,6.197-4.991,12.957-5.5,19.83
		C665.681,562.658,665.12,566.447,664.093,570.524z"/>
	<path fill="#CDA28D" d="M588.972,804.994c-0.979-0.835-1.957-1.671-2.935-2.506c1.139-1.615,2.751-2.244,4.666-2.236
		c3.629,0.016,6.059-2.009,8.467-4.483c2.968-3.05,5.44-6.41,7.586-10.034c10.541-17.798,24.269-32.858,39.962-46.167
		c3.705-3.142,7.171-6.284,9.713-10.505c2.476-4.113,5.473-7.91,8.16-11.899c1-1.485,2.182-3.026,2.58-4.708
		c2.619-11.05,8.727-20.392,14.534-29.844c5.823-9.477,11.978-18.752,18.085-28.052c2.831-4.31,5.208-8.773,6.405-13.834
		c1.672-7.065,4.685-13.616,7.915-20.075c0.403-0.806,0.945-1.576,1.179-2.429c2.939-10.717,8.086-20.751,9.783-31.858
		c0.453-2.967,0.835-6.087,2.057-8.769c4.053-8.891,3.465-17.974,1.993-27.217c-0.325-2.039-0.383-4.243,0.018-6.255
		c1.427-7.161,1.465-14.331,0.601-21.529c-0.26-2.163-0.488-4.21,1.515-5.724c4.321,1.21,8.644,2.419,12.967,3.629
		c3.825,2.464,5.546,6.056,6.058,10.511c1.3,11.328,2.867,22.626,4.116,33.959c0.467,4.236,0.996,8.147,4.3,11.406
		c2.426,2.393,2.769,5.9,2.9,9.267c0.279,7.2,0.687,14.397,0.868,21.599c0.423,16.804,0.777,33.609,1.093,50.415
		c0.254,13.517-0.964,26.975-1.903,40.437c-0.273,3.919-0.266,7.749,0.166,11.665c0.701,6.363,0.042,12.549-3.531,18.214
		c-1.914,3.034-3.256,6.423-4.973,9.589c-2.309,4.256-5.322,8.009-8.745,11.412c-19.712,19.599-41.705,36.203-65.816,50.016
		c-1.565,0.897-3.172,1.722-4.727,2.636c-7.09,4.168-14.566,5.654-22.496,2.911c-9.311-3.221-19.006-1.695-28.506-2.544
		c-0.565-0.05-1.164,0.272-1.746,0.42c1.57-5.87,6.321-9.226,10.297-13.71c4.441,2.493,8.764,4.548,12.68,7.204
		c6.515,4.42,12.805,4.357,19.339,0.235c3.557-2.244,7.237-4.296,10.874-6.411c1.551-0.902,3.156-2.262,4.964-1.83
		c5.446,1.299,9.454-1.781,13.078-4.675c6.849-5.469,14.476-9.636,21.764-14.372c4.009-2.606,7.82-5.536,11.584-8.494
		c3.342-2.627,3.1-5.646-0.407-7.764c-2.052-1.24-4.205-2.335-6.144-3.73c-3.024-2.175-6.116-3.069-10.003-3.096
		c-6.607-0.047-12.917-2.448-19.233-4.335c-1.096-0.328-2.052-1.212-2.996-1.939c-1.551-1.194-2.279-2.755-1.744-4.735
		c2.033-7.537,3.447-15.319,6.273-22.546c3.594-9.19,6.668-18.562,10.313-27.726c2.433-6.115,4.209-12.543,7.15-18.392
		c4.118-8.188,5.535-17.095,8.048-25.711c0.225-0.772-0.057-1.787-0.38-2.575c-0.12-0.293-1.103-0.471-1.568-0.319
		c-0.489,0.16-1.072,0.714-1.198,1.203c-1.979,7.682-6.587,14.025-10.283,20.863c-4.967,9.19-9.802,18.532-13.61,28.234
		c-2.071,5.278-5.088,10.192-6.43,15.782c-0.245,1.02-1.306,2.368-2.236,2.607c-4.014,1.034-5.473,4.425-7.404,7.397
		c-4.902,7.546-9.857,15.059-14.608,22.7c-3.043,4.893-6.877,9.084-10.817,13.209c-1.654,1.732-3.486,3.293-5.149,5.017
		c-9.161,9.497-16.462,20.612-25.922,29.852c-0.213,0.208-0.39,0.458-0.56,0.704c-1.126,1.628-1.326,3.054,0.111,4.811
		c2.941,3.596,2.873,3.857,0.566,6.514c-0.978,1.126-1.966,2.345-3.201,3.124c-2.713,1.71-2.09,3.994-1.468,6.366
		c-5.623,2.615-11.414,1.565-17.167,0.7C593.491,806.231,591.243,805.532,588.972,804.994z"/>
	<path fill="#DC4310" d="M597.49,503.464c4.717-4.089,10.348-5.905,16.431-6.605c1.408,1.778,3.526,2.185,5.508,2.844
		c8.763,2.916,8.202,7.805,4.354,13.7c-0.164,0.251-0.349,0.492-0.555,0.709c-3.991,4.197-6.432,9.24-8.799,14.492
		c-1.599,3.548-2.961,7.197-4.502,10.76c-3.641,8.422-8.29,16.592-6.837,26.439c0.33,2.24-0.801,4.692-1.241,7.049
		c-2.218,11.875-6.786,23.074-11.129,34.187c-4.71,12.051-7.799,24.561-12.055,36.723c-4.622,13.21-10.284,25.555-19.206,36.311
		c-3.735,4.503-6.399,9.283-5.846,15.355l0.088-0.095c-1.264-0.134-2.382,0.308-3.137,1.244c-1.471,1.823-2.902,3.694-4.171,5.66
		c-3.621,5.608-6.384,11.904-13.676,14.114c-1.79,0.543-3.113,2.621-4.651,3.994c-6.913-0.45-13.722-1.602-20.276-3.811
		c-5.657-1.906-11.452-3.778-15.139-9.063c0.037-4.185,0.265-8.378,0.056-12.549c-0.195-3.882-0.908-7.735-1.293-11.611
		c-0.237-2.386-0.2-4.8-0.438-7.186c-0.696-6.986,2.561-12.157,7.564-16.473c1.582-1.364,3.385-2.505,5.19-3.572
		c15.89-9.387,25.594-24.098,34.235-39.719c0.562-1.015,1.22-2.306,1.052-3.341c-1.024-6.297,1.953-11.774,3.539-17.474
		c2.215-7.958,3.19-15.822,1.397-23.985c-1.321-6.013-0.286-11.94,1.318-17.789c0.719-2.623,1.138-5.036-0.724-7.666
		c-2.542-3.589-2.287-4.289,0.865-6.361c12.781-8.402,24.848-17.845,38.005-25.715c4.32-2.584,7.997-6.242,11.968-9.409
		c0.001,0-0.185,0.065-0.185,0.064C595.963,504.277,596.726,503.871,597.49,503.464z"/>
	<path fill="#DC4310" d="M801.695,730.513c-0.184,1.189-0.609,2.397-0.514,3.563c0.567,6.97-2.503,12.835-6.03,18.319
		c-3.105,4.829-5.459,10.015-7.873,15.122c-2.206,4.666-4.67,9.019-7.837,13.051c-1.665,2.12-3.117,4.409-4.644,6.635
		c-0.677,0.988-1.072,2.534-1.987,2.938c-7.162,3.157-10.863,10.193-16.796,14.689c-0.956,0.725-2.001,1.332-2.969,2.042
		c-2.998,2.199-6.381,2.314-9.404,0.69c-5.002-2.685-10.171-5.207-14.487-8.996c-5.283-4.638-5.43-8.748-0.461-13.804
		c4.238-4.312,9.109-7.828,14.474-10.629c9.913-5.177,17.001-13.023,22.326-22.772c1.831-3.352,5.266-5.858,6.939-9.257
		c1.538-3.126,0.128-7.059,1.39-10.579c3.71-10.345,3.607-21.188,3.832-31.984c0.206-9.865,0.526-19.728,0.877-29.589
		c0.054-1.506,0.314-2.884-0.67-4.276c-1.157-1.636-4.042-2.474-3.301-4.89c0.455-1.482,2.434-2.438,3.521-3.797
		c2.302-2.879,4.403-5.821,1.924-9.757c-0.635-1.009-0.224-2.302,0.54-3.368c1.397-1.948,2.486-4.175,4.121-5.887
		c6.645-6.963,12.519-14.48,17.639-22.639c1.741-2.775,4.195-5.107,6.36-7.609c3.161-3.651,5.905-7.523,7.674-12.091
		c1.435-3.704,3.332-4.985,5.743-4.512c3.278,0.644,6.467,4.59,6.147,7.873c-0.174,1.782-0.668,3.548-1.15,5.283
		c-1.241,4.463-1.578,8.91,0.334,13.253c1.054,2.395,0.662,4.685,0.046,7.045c-1.14,4.368-2.154,8.772-3.385,13.114
		c-1.08,3.809-0.683,7.312,2.346,9.933c3.765,3.257,3.024,6.708,1.301,10.56c-5.488,12.268-11.534,24.315-15.111,37.352
		c-1.908,1.287-2.111,3.479-2.768,5.4c-2.293,6.701-3.642,13.688-6.776,20.155C801.718,723.876,800.48,727.139,801.695,730.513z"/>
	<path fill="#BD8570" d="M612.958,805.876c-0.621-2.372-1.244-4.656,1.468-6.366c1.235-0.778,2.224-1.998,3.201-3.124
		c2.307-2.657,2.374-2.918-0.566-6.514c-1.437-1.757-1.237-3.183-0.111-4.811c0.17-0.246,0.347-0.496,0.56-0.704
		c9.46-9.24,16.76-20.355,25.922-29.852c1.663-1.724,3.495-3.286,5.149-5.017c3.939-4.125,7.774-8.315,10.817-13.209
		c4.751-7.641,9.706-15.154,14.608-22.7c1.931-2.973,3.39-6.363,7.404-7.397c0.931-0.239,1.992-1.588,2.236-2.607
		c1.342-5.59,4.358-10.504,6.43-15.782c3.808-9.702,8.643-19.045,13.61-28.234c3.696-6.838,8.305-13.181,10.283-20.863
		c0.126-0.489,0.709-1.044,1.198-1.203c0.464-0.152,1.448,0.026,1.568,0.319c0.323,0.788,0.605,1.803,0.38,2.575
		c-2.514,8.616-3.93,17.522-8.048,25.711c-2.942,5.849-4.718,12.277-7.15,18.392c-3.645,9.164-6.718,18.536-10.313,27.726
		c-2.827,7.228-4.24,15.009-6.273,22.546c-0.534,1.98,0.193,3.541,1.744,4.735c0.944,0.726,1.9,1.611,2.996,1.939
		c6.316,1.887,12.626,4.288,19.233,4.335c3.887,0.028,6.979,0.922,10.003,3.096c1.939,1.395,4.093,2.49,6.144,3.73
		c3.507,2.118,3.749,5.137,0.407,7.764c-3.763,2.958-7.575,5.888-11.584,8.494c-7.288,4.737-14.915,8.903-21.764,14.372
		c-3.624,2.894-7.632,5.974-13.078,4.675c-1.809-0.432-3.413,0.928-4.964,1.83c-3.637,2.116-7.317,4.168-10.874,6.411
		c-6.534,4.122-12.824,4.185-19.339-0.235c-3.915-2.656-8.239-4.71-12.68-7.204c-3.976,4.483-8.727,7.839-10.297,13.71
		c-0.378,0.851-0.996,1.334-1.963,1.286c-0.788,0.383-1.575,0.767-2.362,1.15C615.873,806.166,614.473,806.244,612.958,805.876z"/>
	<path fill="#473A1C" d="M422.684,702.647c-0.962,3.208,0.419,6.243,0.69,9.361c-3.287,0.337-6.432,1.091-9.342,2.779
		c-3.437,1.994-7.348,2.413-11.182,2.875c-2.421,0.292-4.885-2.102-4.48-4.493c0.593-3.502,1.032-7.305,2.752-10.276
		c2.478-4.28,7.169-4.836,11.845-4.497C416.719,698.667,419.459,701.2,422.684,702.647z"/>
	<path fill="#FFFFFF" d="M701.84,609.795c-1.188-10.155,3.204-18.467,8.723-26.407C709.216,592.705,705.608,601.276,701.84,609.795z
		"/>
	<path fill="#CDA28D" d="M801.695,730.513c-1.215-3.374,0.023-6.637,1.37-9.417c3.134-6.467,4.483-13.454,6.776-20.155
		c0.657-1.921,0.859-4.113,2.768-5.4c-0.866,4.111-1.624,8.241-2.612,12.316C808.093,715.717,805.732,723.426,801.695,730.513z"/>
	<path fill="#F6DF9F" d="M744.221,520.499c-4.323-1.21-8.646-2.419-12.967-3.629c-0.121-0.862-0.285-1.72-0.359-2.585
		c-0.113-1.318,0.516-2.669,1.814-2.044c3.641,1.753,7.128,3.841,10.578,5.958C743.854,518.548,743.922,519.712,744.221,520.499z"/>
	<path fill="#CDA28D" d="M616.954,804.85c0.787-0.384,1.574-0.767,2.362-1.15C618.53,804.083,617.742,804.467,616.954,804.85z"/>
	<path fill="#BD8570" d="M885.411,820.015c0.682-3.917,3.002-6.896,5.567-9.733c1.154-0.158,2.857,0.116,3.384-0.546
		c3.917-4.922,8.427-9.398,11.555-14.927c0.442-0.782,1.045-1.562,1.19-2.408c1.408-8.216,6.265-14.897,10.006-22.025
		c1.844-3.513,3.546-6.999,4.262-10.823c0.757-4.039,2.745-7.434,5.333-10.272c4.846-5.315,10.154-10.212,15.316-15.235
		c0.359-0.349,1.246-0.593,1.628-0.392c0.907,0.476,0.826,1.496,0.379,2.223c-3.163,5.138-6.749,9.916-11.336,13.928
		c-2.182,1.909-1.768,4.782,0.865,5.779c4.985,1.886,10.029,4.6,15.415,0.987c2.19-1.469,4.487-1.27,6.923-0.613
		c2.602,0.702,5.28,1.122,7.929,1.648c2.156,0.429,2.836,1.711,1.748,3.822c-3.151,6.116-6.383,12.191-9.613,18.266
		c-0.768,1.444-0.955,2.806,0.144,4.154c-1.963,5.068-5.714,9-8.81,13.294c-5.554,7.701-11.691,14.98-17.562,22.453
		c-2.979,3.792-6.748,5.993-11.619,4.947c-2.789-0.599-4.344,1.57-6.588,2.045c-2.278-1.637-1.367,1.072-2.1,1.541
		c0,0,0.139-0.073,0.138-0.073c-6.692,0.774-12.801-0.249-17.736-5.391C890.142,820.908,887.674,820.61,885.411,820.015z"/>
	<path fill="#473A1C" d="M945.464,656.893c-1.37-0.188-2.011-1.217-2.409-2.325c-2.005-5.581-3.997-11.169-5.858-16.799
		c-0.349-1.056-0.285-2.362-0.032-3.466c0.167-0.729,0.918-1.448,1.593-1.884c0.339-0.219,1.313,0.009,1.623,0.363
		c3.476,3.986,7.654,7.731,6.228,13.873c-0.741,3.19,1.327,6.513-0.579,9.601C945.881,656.497,945.651,656.686,945.464,656.893z"/>
	<path fill="#473A1C" d="M946.223,660.587c2.142,1.479,2.05,2.868,1.152,4.067c-0.325,0.434-1.82,0.605-2.201,0.258
		c-0.861-0.783-0.925-2.044-0.275-3.092C945.309,661.159,945.823,660.271,946.223,660.587z"/>
	<path fill="#CDA28D" d="M885.411,820.015c2.263,0.594,4.731,0.893,6.419,2.651c4.935,5.141,11.044,6.165,17.736,5.391
		c-2.703,5.424-7.852,5.968-12.832,5.652c-3.751-0.237-7.484-1.66-11.095-2.925c-3.456-1.211-4.207-3.5-2.62-7.06
		C883.611,822.396,884.602,821.246,885.411,820.015z"/>
	<path fill="#CDA28D" d="M909.428,828.129c0.733-0.469-0.177-3.178,2.1-1.541C910.828,827.102,910.128,827.616,909.428,828.129z"/>
	<path fill="#BD8570" d="M664.093,570.524c1.027-4.077,1.588-7.866,1.88-11.806c0.509-6.873,2.141-13.633,5.5-19.83
		c2.62-4.834,4.11-10.016,3.86-15.545c-0.14-3.083,0.654-5.958,1.294-8.889c0.799-3.66,1.527-7.372,6.784-6.206
		c0.523,0.116,1.357-0.048,1.699-0.41c5.094-5.401,9.978-2.034,13.304,1.498c4.003,4.252,8.622,7.08,13.503,9.893
		c3.756,2.165,4.237,3.559,2.676,7.359c-1.244,3.027-2.95,5.893-4.7,8.674c-1.032,1.64-1.487,3.174-1.103,5.074
		c1.523,7.534,0.566,14.901-1.475,22.224c-1.938,6.958-3.693,13.966-5.535,20.95c-0.384,1.455-0.505,3.074-1.244,4.324
		c-3.905,6.609-5.392,14.031-7.001,21.331c-1.765,8.006-5.16,15.411-8.431,22.73c-2.311,5.173-4.005,10.599-6.613,15.709
		c-6.711,13.148-20.841,39.441-28.512,50.923c-0.832,1.245-1.663,2.505-2.626,3.648c-11.825,14.021-23.685,28.008-37.947,39.706
		c-6.724,5.515-14.15,10.028-21.191,15.055c-6.466,4.616-14.154,6.541-20.465,11.153c-4.931,3.604-10.456,4.299-16.294,3.14
		c-2.382-0.473-5.039-1.433-6.936,0.336c-2.955,2.756-5.915,2.059-9.21,1.233c-6.193-1.551-11.604-4.773-17.209-7.614
		c-8.936-4.529-15.867-11.737-23.78-17.631c-0.717-0.534-1.389-1.173-1.939-1.876c-1.107-1.417-2.719-3.081-1.935-4.791
		c1.202-2.621,3.633-1.081,5.581-0.745c7.224,1.246,13.596,4.731,19.884,8.164c4.476,2.444,8.245,2.696,12.564-0.155
		c5.017-3.312,10.338-6.161,15.52-9.225c1.035-0.612,2.274-1.083,3.013-1.96c5.901-7.012,14.493-10.693,20.943-16.919
		c5.388-5.201,10.384-10.9,14.946-16.844c7.121-9.28,13.704-18.973,20.561-28.456c6.856-9.482,13.749-18.938,20.668-28.374
		c3.205-4.37,6.365-8.678,7.591-14.177c0.502-2.251,2.078-4.283,3.268-6.356c7.313-12.745,14.778-25.404,21.931-38.237
		C659.972,582.119,662.99,576.534,664.093,570.524z"/>
	<path fill="#473A1C" d="M553.613,695.43c-0.553-6.073,2.111-10.852,5.846-15.355c8.923-10.757,14.585-23.102,19.206-36.311
		c4.255-12.162,7.345-24.672,12.055-36.723c4.343-11.113,8.911-22.312,11.129-34.187c0.44-2.358,1.572-4.809,1.241-7.049
		c-1.452-9.847,3.197-18.017,6.837-26.439c1.541-3.564,2.903-7.212,4.502-10.76c2.367-5.252,4.808-10.295,8.799-14.492
		c0.206-0.217,0.392-0.458,0.555-0.709c3.848-5.895,4.409-10.784-4.354-13.7c-1.982-0.659-4.1-1.066-5.508-2.844
		c4.231-2.558,9.147-2.662,13.782-3.746c1.944-0.454,3.452,0.778,4.516,2.355c1.538,2.279,2.58,4.745,2.455,7.577
		c-0.239,5.394-0.834,10.543-3.139,15.707c-3.408,7.632-6.649,15.411-8.481,23.685c-1.165,5.261-3.159,10.295-5.122,15.348
		c-2.602,6.696-4.522,13.673-6.457,20.606c-1.695,6.071-3.373,12.188-4.409,18.394c-1.959,11.736-6.619,22.404-12.18,32.731
		c-5.827,10.819-11.627,21.672-17.995,32.173c-5.904,9.735-12.828,18.837-18.387,28.817
		C557.391,692.501,556.298,694.847,553.613,695.43z"/>
	<path fill="#473A1C" d="M528.065,720.345c1.538-1.372,2.862-3.451,4.651-3.994c7.291-2.21,10.054-8.506,13.676-14.114
		c1.27-1.966,2.701-3.837,4.171-5.66c0.755-0.936,1.873-1.378,3.137-1.244c-0.191,0.862-0.206,1.815-0.599,2.572
		c-4.495,8.672-9.673,16.923-15.74,24.582c-2.705,3.415-3.636,3.434-7.27,0.607C529.227,722.422,528.731,721.274,528.065,720.345z"
		/>
	<path fill="#473A1C" d="M597.49,503.464c-0.763,0.407-1.527,0.814-2.291,1.22C595.711,503.805,596.485,503.418,597.49,503.464z"/>
	<path fill="#B55030" d="M258.219,478.492c-1.701-11.358,0.393-31.028,5.535-41.551c5.407-11.066,17.078-19.94,26.663-27.469
		c17.819-13.996,35.222-29.269,55.466-39.718c23.602-12.182,46.482-6.647,69.495,4.602c18.68,9.13,25.805,30.525,22.128,50.331
		c-2.241,12.068-5.658,24.088-8.592,36.015c-1.566,6.366-1.953,12.725-2.919,19.189c-0.486,3.255-1.755,6.815-1.456,10.102
		c0.424,4.672,3.918,8.124,4.542,12.611c0.972,6.984-4.206,12.547-5.366,19.105c-1.172,6.631,1.539,12.433-1.861,18.458
		c-4.085,7.24-11.113,11.727-14.042,2.467c-5.094-16.104,5.29-36.916-17.047-43.717c-8.813-2.683-9.951,3.236-15.093,8.561
		c-6.72,6.961-11.184,3.919-19.625,1.307c-11.273-3.488-25.604-4.615-34.824-12.197c-9.222-7.584-25.07-20.324-37.896-18.956
		c-6.455,0.689-12.333,5.231-18.898,5.74c-11.473,0.89-5.36-9.034-3.209-16.55"/>
	<path fill="#E3B5A3" d="M851.745,583.616c-0.582,3.352,1.512,6.929,2.139,10.274c1.084,5.777,0.758,11.626,1.699,17.453
		c1.169,7.233,3.573,14.368,4.241,21.64c0.68,7.396-1.296,14.289-2.338,21.57c-3.293,23.013-9.779,42.979-18.349,64.561
		c-2.783,7.008-20.102,45.533,1.846,26.987c5.824-4.922,16.3-32.827,26.122-28.171c0.032,10.841-8.362,21.263-7.365,31.555
		c4.734-0.785,7.469-6.053,12.221-7.2c5.295,5.492-4.474,25.215-6.012,31.215c-3.359,13.103-9.3,26.574-11.494,39.737
		c9.092-2.503,14.095-15.651,17.763-23.48c4.986-10.642,10.351-21.068,15.538-31.655c6.05-12.35,10.918-25.3,17.491-37.37
		c6.658-12.227,12.94-24.607,15.639-38.393c3.704-18.919-6.345-41.937-18.343-56.306c-10.559-12.646-18.648-27.982-29.736-40.023
		c-4.044-4.392-8.624-6.48-14.153-6.851C855.165,578.925,843.076,582.571,851.745,583.616z"/>
</g>
</svg>
